<?xml version="1.0" standalone="no"?><!DOCTYPE svg PUBLIC "-//W3C//DTD SVG 1.1//EN" "http://www.w3.org/Graphics/SVG/1.1/DTD/svg11.dtd"><svg t="1628854451642" class="icon" viewBox="0 0 1024 1024" version="1.1" xmlns="http://www.w3.org/2000/svg" p-id="945" xmlns:xlink="http://www.w3.org/1999/xlink" width="200" height="200"><defs><style type="text/css"></style></defs><path d="M85.333333 490.666667A64 64 0 0 0 149.333333 554.666667h725.333334a64 64 0 0 0 0-128h-725.333334A64 64 0 0 0 85.333333 490.666667z" fill="#000000" p-id="946"></path><path d="M405.333333 853.333333a64 64 0 0 1 0-128h469.333334a64 64 0 0 1 0 128h-469.333334z m256-597.333333a64 64 0 0 1 0-128h213.333334a64 64 0 0 1 0 128h-213.333334z" fill="#000000" p-id="947"></path></svg>